<svg width="121" height="24" viewBox="0 0 121 24" fill="none" xmlns="http://www.w3.org/2000/svg">
<path d="M34.1237 18.2156C32.3473 18.2156 30.88 17.6254 29.722 16.4448C28.5639 15.2643 27.9849 13.8082 27.9849 12.0768C27.9849 10.334 28.5639 8.87803 29.722 7.70872C30.88 6.52816 32.3473 5.93789 34.1237 5.93789C35.1919 5.93789 36.1757 6.19086 37.0751 6.69681C37.9858 7.19152 38.6942 7.86612 39.2001 8.72062L37.1932 9.88431C36.9009 9.35587 36.4849 8.94549 35.9452 8.65316C35.4055 8.34959 34.7983 8.1978 34.1237 8.1978C32.9769 8.1978 32.0493 8.55759 31.341 9.27717C30.6439 9.99674 30.2954 10.9299 30.2954 12.0768C30.2954 13.2123 30.6439 14.1399 31.341 14.8595C32.0493 15.5791 32.9769 15.9389 34.1237 15.9389C34.7983 15.9389 35.4055 15.7927 35.9452 15.5004C36.4961 15.1968 36.9121 14.7864 37.1932 14.2692L39.2001 15.4329C38.6942 16.2874 37.9915 16.9676 37.092 17.4736C36.1925 17.9683 35.2031 18.2156 34.1237 18.2156Z" fill="#111111"/>
<path d="M47.7626 16.9339C46.8968 17.7884 45.84 18.2156 44.5919 18.2156C43.3439 18.2156 42.287 17.7884 41.4213 16.9339C40.5668 16.0682 40.1396 15.0113 40.1396 13.7633C40.1396 12.5153 40.5668 11.464 41.4213 10.6095C42.287 9.74377 43.3439 9.3109 44.5919 9.3109C45.84 9.3109 46.8968 9.74377 47.7626 10.6095C48.6283 11.464 49.0612 12.5153 49.0612 13.7633C49.0612 15.0113 48.6283 16.0682 47.7626 16.9339ZM42.956 15.4329C43.3945 15.8714 43.9398 16.0907 44.5919 16.0907C45.2441 16.0907 45.7894 15.8714 46.2278 15.4329C46.6663 14.9944 46.8856 14.4379 46.8856 13.7633C46.8856 13.0887 46.6663 12.5321 46.2278 12.0936C45.7894 11.6551 45.2441 11.4359 44.5919 11.4359C43.9398 11.4359 43.3945 11.6551 42.956 12.0936C42.5288 12.5321 42.3152 13.0887 42.3152 13.7633C42.3152 14.4379 42.5288 14.9944 42.956 15.4329Z" fill="#111111"/>
<path d="M50.5917 17.9795V5.66805H52.7673V17.9795H50.5917Z" fill="#111111"/>
<path d="M61.943 10.5926C61.0773 9.73815 60.0204 9.3109 58.7724 9.3109C57.5244 9.3109 56.4675 9.73815 55.6018 10.5926C54.7473 11.4584 54.32 12.5153 54.32 13.7633C54.32 15.0113 54.7473 16.0625 55.6018 16.917C56.4675 17.7828 57.5244 18.2156 58.7724 18.2156C60.0204 18.2156 61.0773 17.7828 61.943 16.917C62.8088 16.0625 63.2417 15.0113 63.2417 13.7633C63.2417 12.5153 62.8088 11.4584 61.943 10.5926ZM57.1365 12.0936C57.575 11.6551 58.1203 11.4359 58.7724 11.4359C59.4245 11.4359 59.9698 11.6551 60.4083 12.0936C60.8468 12.5321 61.0661 13.0887 61.0661 13.7633C61.0661 14.4379 60.8468 14.9944 60.4083 15.4329C59.9698 15.8714 59.4245 16.0907 58.7724 16.0907C58.1203 16.0907 57.575 15.8714 57.1365 15.4329C56.7093 14.9944 56.4956 14.4379 56.4956 13.7633C56.4956 13.0887 56.7093 12.5321 57.1365 12.0936Z" fill="#111111"/>
<path d="M66.9478 10.9974C67.1501 10.4577 67.4818 10.053 67.9428 9.78312C68.415 9.51328 68.9378 9.37836 69.5112 9.37836V11.8069C68.8479 11.7282 68.252 11.8631 67.7235 12.2117C67.2064 12.5602 66.9478 13.1393 66.9478 13.9488V17.9795H64.7722V9.54701H66.9478V10.9974Z" fill="#111111"/>
<path d="M79.5029 6.174C80.6384 6.174 81.5941 6.55627 82.3699 7.32082C83.1457 8.08537 83.5336 9.02419 83.5336 10.1373C83.5336 11.2504 83.1457 12.1892 82.3699 12.9538C81.5941 13.7183 80.6384 14.1006 79.5029 14.1006H77.4285V17.9795H75.1011V6.174H79.5029ZM79.5029 11.925C79.9976 11.925 80.408 11.7563 80.734 11.419C81.0601 11.0705 81.2231 10.6432 81.2231 10.1373C81.2231 9.62009 81.0601 9.19284 80.734 8.85554C80.408 8.51824 79.9976 8.34959 79.5029 8.34959H77.4285V11.925H79.5029Z" fill="#111111"/>
<path d="M86.027 8.53511C85.6672 8.53511 85.3524 8.40581 85.0826 8.14721C84.824 7.87737 84.6947 7.56255 84.6947 7.20276C84.6947 6.84298 84.824 6.52816 85.0826 6.25832C85.3524 5.98848 85.6672 5.85356 86.027 5.85356C86.398 5.85356 86.7129 5.98848 86.9715 6.25832C87.2413 6.52816 87.3762 6.84298 87.3762 7.20276C87.3762 7.56255 87.2413 7.87737 86.9715 8.14721C86.7129 8.40581 86.398 8.53511 86.027 8.53511ZM84.9476 17.9795V9.54701H87.1232V17.9795H84.9476Z" fill="#111111"/>
<path d="M93.1284 18.2156C91.8579 18.2156 90.7954 17.7884 89.9409 16.9339C89.0976 16.0794 88.676 15.0225 88.676 13.7633C88.676 12.504 89.0976 11.4471 89.9409 10.5926C90.7954 9.73815 91.8579 9.3109 93.1284 9.3109C93.9491 9.3109 94.6968 9.50766 95.3714 9.90117C96.046 10.2947 96.5576 10.8231 96.9062 11.4865L95.0341 12.5827C94.8655 12.2342 94.6069 11.9587 94.2583 11.7563C93.921 11.554 93.5388 11.4528 93.1115 11.4528C92.4594 11.4528 91.9197 11.672 91.4925 12.1105C91.0652 12.5377 90.8516 13.0887 90.8516 13.7633C90.8516 14.4266 91.0652 14.9776 91.4925 15.416C91.9197 15.8433 92.4594 16.0569 93.1115 16.0569C93.55 16.0569 93.9379 15.9614 94.2752 15.7702C94.6238 15.5678 94.8823 15.2924 95.051 14.9438L96.9399 16.0232C96.5689 16.6865 96.046 17.2206 95.3714 17.6254C94.6968 18.0189 93.9491 18.2156 93.1284 18.2156Z" fill="#111111"/>
<path d="M105.865 17.9795H103.336L100.266 14.1512V17.9795H98.0905V6.174H100.266V13.2573L103.167 9.54701H105.764L102.374 13.7127L105.865 17.9795Z" fill="#111111"/>
<path d="M108.18 14.6571C108.473 15.714 109.265 16.2424 110.558 16.2424C111.39 16.2424 112.02 15.9614 112.447 15.3992L114.201 16.4111C113.369 17.6141 112.143 18.2156 110.524 18.2156C109.13 18.2156 108.012 17.794 107.168 16.9508C106.325 16.1075 105.903 15.045 105.903 13.7633C105.903 12.4928 106.319 11.4359 107.151 10.5926C107.983 9.73815 109.052 9.3109 110.356 9.3109C111.593 9.3109 112.61 9.73815 113.408 10.5926C114.218 11.4471 114.623 12.504 114.623 13.7633C114.623 14.0444 114.595 14.3423 114.538 14.6571H108.18ZM108.146 12.9706H112.447C112.323 12.3972 112.065 11.97 111.671 11.6889C111.289 11.4078 110.85 11.2672 110.356 11.2672C109.771 11.2672 109.288 11.419 108.905 11.7226C108.523 12.0149 108.27 12.4309 108.146 12.9706Z" fill="#111111"/>
<path d="M118.317 10.9974C118.519 10.4577 118.851 10.053 119.312 9.78312C119.784 9.51328 120.307 9.37836 120.88 9.37836V11.8069C120.217 11.7282 119.621 11.8631 119.093 12.2117C118.576 12.5602 118.317 13.1393 118.317 13.9488V17.9795H116.141V9.54701H118.317V10.9974Z" fill="#111111"/>
<path fill-rule="evenodd" clip-rule="evenodd" d="M18.1347 8.56127L19.8828 6.81318L21.7038 4.9922C23.1633 6.92907 24.0286 9.33904 24.0286 11.9511C24.0286 18.3433 18.8467 23.5252 12.4546 23.5252C6.06238 23.5252 0.880493 18.3433 0.880493 11.9511C0.880493 5.55893 6.06238 0.377052 12.4546 0.377052C15.1532 0.377052 17.6361 1.30062 19.6044 2.84892L17.7615 4.69186L16.0526 6.40076C15.017 5.72809 13.7814 5.33736 12.4546 5.33736C8.80188 5.33736 5.8408 8.29844 5.8408 11.9511C5.8408 15.6038 8.80188 18.5649 12.4546 18.5649C16.1072 18.5649 19.0683 15.6038 19.0683 11.9511C19.0683 10.7121 18.7276 9.55258 18.1347 8.56127Z" fill="#0066FF"/>
</svg>
