<svg width="363" height="75" viewBox="0 0 363 75" fill="none" xmlns="http://www.w3.org/2000/svg">
<path d="M100.528 58.944C95.1557 58.944 90.7187 57.159 87.2167 53.589C83.7147 50.019 81.9637 45.616 81.9637 40.38C81.9637 35.11 83.7147 30.707 87.2167 27.171C90.7187 23.601 95.1557 21.816 100.528 21.816C103.758 21.816 106.733 22.581 109.453 24.111C112.207 25.607 114.349 27.647 115.879 30.231L109.81 33.75C108.926 32.152 107.668 30.911 106.036 30.027C104.404 29.109 102.568 28.65 100.528 28.65C97.0597 28.65 94.2547 29.738 92.1127 31.914C90.0047 34.09 88.9507 36.912 88.9507 40.38C88.9507 43.814 90.0047 46.619 92.1127 48.795C94.2547 50.971 97.0597 52.059 100.528 52.059C102.568 52.059 104.404 51.617 106.036 50.733C107.702 49.815 108.96 48.574 109.81 47.01L115.879 50.529C114.349 53.113 112.224 55.17 109.504 56.7C106.784 58.196 103.792 58.944 100.528 58.944Z" fill="black"/>
<path d="M141.772 55.068C139.154 57.652 135.958 58.944 132.184 58.944C128.41 58.944 125.214 57.652 122.596 55.068C120.012 52.45 118.72 49.254 118.72 45.48C118.72 41.706 120.012 38.527 122.596 35.943C125.214 33.325 128.41 32.016 132.184 32.016C135.958 32.016 139.154 33.325 141.772 35.943C144.39 38.527 145.699 41.706 145.699 45.48C145.699 49.254 144.39 52.45 141.772 55.068ZM127.237 50.529C128.563 51.855 130.212 52.518 132.184 52.518C134.156 52.518 135.805 51.855 137.131 50.529C138.457 49.203 139.12 47.52 139.12 45.48C139.12 43.44 138.457 41.757 137.131 40.431C135.805 39.105 134.156 38.442 132.184 38.442C130.212 38.442 128.563 39.105 127.237 40.431C125.945 41.757 125.299 43.44 125.299 45.48C125.299 47.52 125.945 49.203 127.237 50.529Z" fill="black"/>
<path d="M150.327 58.23V21H156.906V58.23H150.327Z" fill="black"/>
<path d="M184.653 55.068C182.035 57.652 178.839 58.944 175.065 58.944C171.291 58.944 168.095 57.652 165.477 55.068C162.893 52.45 161.601 49.254 161.601 45.48C161.601 41.706 162.893 38.527 165.477 35.943C168.095 33.325 171.291 32.016 175.065 32.016C178.839 32.016 182.035 33.325 184.653 35.943C187.271 38.527 188.58 41.706 188.58 45.48C188.58 49.254 187.271 52.45 184.653 55.068ZM170.118 50.529C171.444 51.855 173.093 52.518 175.065 52.518C177.037 52.518 178.686 51.855 180.012 50.529C181.338 49.203 182.001 47.52 182.001 45.48C182.001 43.44 181.338 41.757 180.012 40.431C178.686 39.105 177.037 38.442 175.065 38.442C173.093 38.442 171.444 39.105 170.118 40.431C168.826 41.757 168.18 43.44 168.18 45.48C168.18 47.52 168.826 49.203 170.118 50.529Z" fill="black"/>
<path d="M199.788 37.116C200.4 35.484 201.403 34.26 202.797 33.444C204.225 32.628 205.806 32.22 207.54 32.22V39.564C205.534 39.326 203.732 39.734 202.134 40.788C200.57 41.842 199.788 43.593 199.788 46.041V58.23H193.209V32.73H199.788V37.116Z" fill="black"/>
<path d="M237.754 22.53C241.188 22.53 244.078 23.686 246.424 25.998C248.77 28.31 249.943 31.149 249.943 34.515C249.943 37.881 248.77 40.72 246.424 43.032C244.078 45.344 241.188 46.5 237.754 46.5H231.481V58.23H224.443V22.53H237.754ZM237.754 39.921C239.25 39.921 240.491 39.411 241.477 38.391C242.463 37.337 242.956 36.045 242.956 34.515C242.956 32.951 242.463 31.659 241.477 30.639C240.491 29.619 239.25 29.109 237.754 29.109H231.481V39.921H237.754Z" fill="black"/>
<path d="M257.483 29.67C256.395 29.67 255.443 29.279 254.627 28.497C253.845 27.681 253.454 26.729 253.454 25.641C253.454 24.553 253.845 23.601 254.627 22.785C255.443 21.969 256.395 21.561 257.483 21.561C258.605 21.561 259.557 21.969 260.339 22.785C261.155 23.601 261.563 24.553 261.563 25.641C261.563 26.729 261.155 27.681 260.339 28.497C259.557 29.279 258.605 29.67 257.483 29.67ZM254.219 58.23V32.73H260.798V58.23H254.219Z" fill="black"/>
<path d="M278.958 58.944C275.116 58.944 271.903 57.652 269.319 55.068C266.769 52.484 265.494 49.288 265.494 45.48C265.494 41.672 266.769 38.476 269.319 35.892C271.903 33.308 275.116 32.016 278.958 32.016C281.44 32.016 283.701 32.611 285.741 33.801C287.781 34.991 289.328 36.589 290.382 38.595L284.721 41.91C284.211 40.856 283.429 40.023 282.375 39.411C281.355 38.799 280.199 38.493 278.907 38.493C276.935 38.493 275.303 39.156 274.011 40.482C272.719 41.774 272.073 43.44 272.073 45.48C272.073 47.486 272.719 49.152 274.011 50.478C275.303 51.77 276.935 52.416 278.907 52.416C280.233 52.416 281.406 52.127 282.426 51.549C283.48 50.937 284.262 50.104 284.772 49.05L290.484 52.314C289.362 54.32 287.781 55.935 285.741 57.159C283.701 58.349 281.44 58.944 278.958 58.944Z" fill="black"/>
<path d="M317.475 58.23H309.825L300.543 46.653V58.23H293.964V22.53H300.543V43.95L309.315 32.73H317.169L306.918 45.327L317.475 58.23Z" fill="black"/>
<path d="M324.475 48.183C325.359 51.379 327.756 52.977 331.666 52.977C334.182 52.977 336.086 52.127 337.378 50.427L342.682 53.487C340.166 57.125 336.46 58.944 331.564 58.944C327.348 58.944 323.965 57.669 321.415 55.119C318.865 52.569 317.59 49.356 317.59 45.48C317.59 41.638 318.848 38.442 321.364 35.892C323.88 33.308 327.11 32.016 331.054 32.016C334.794 32.016 337.871 33.308 340.285 35.892C342.733 38.476 343.957 41.672 343.957 45.48C343.957 46.33 343.872 47.231 343.702 48.183H324.475ZM324.373 43.083H337.378C337.004 41.349 336.222 40.057 335.032 39.207C333.876 38.357 332.55 37.932 331.054 37.932C329.286 37.932 327.824 38.391 326.668 39.309C325.512 40.193 324.747 41.451 324.373 43.083Z" fill="black"/>
<path d="M355.129 37.116C355.741 35.484 356.744 34.26 358.138 33.444C359.566 32.628 361.146 32.22 362.88 32.22V39.564C360.874 39.326 359.072 39.734 357.474 40.788C355.91 41.842 355.129 43.593 355.129 46.041V58.23H348.549V32.73H355.129V37.116Z" fill="black"/>
<circle cx="35" cy="40" r="35" fill="#20A5EE"/>
<circle cx="35" cy="40" r="20" fill="white"/>
<path d="M35.5001 40.0109L54.2556 21.2554L73.011 2.5" stroke="white" stroke-width="6"/>
</svg>
