<svg width="25" height="24" viewBox="0 0 25 24" fill="none" xmlns="http://www.w3.org/2000/svg">
<path fill-rule="evenodd" clip-rule="evenodd" d="M18.1347 8.56127L19.8828 6.81318L21.7038 4.9922C23.1633 6.92907 24.0286 9.33904 24.0286 11.9511C24.0286 18.3433 18.8467 23.5252 12.4546 23.5252C6.06238 23.5252 0.880493 18.3433 0.880493 11.9511C0.880493 5.55893 6.06238 0.377052 12.4546 0.377052C15.1532 0.377052 17.6361 1.30062 19.6044 2.84892L17.7615 4.69186L16.0526 6.40076C15.017 5.72809 13.7814 5.33736 12.4546 5.33736C8.80188 5.33736 5.8408 8.29844 5.8408 11.9511C5.8408 15.6038 8.80188 18.5649 12.4546 18.5649C16.1072 18.5649 19.0683 15.6038 19.0683 11.9511C19.0683 10.7121 18.7276 9.55258 18.1347 8.56127Z" fill="#0066FF"/>
</svg>
